<?xml version="1.0" standalone="no"?>
<!DOCTYPE svg PUBLIC "-//W3C//DTD SVG 20010904//EN"
 "http://www.w3.org/TR/2001/REC-SVG-20010904/DTD/svg10.dtd">
<svg version="1.0" xmlns="http://www.w3.org/2000/svg"
 width="902.000000pt" height="277.000000pt" viewBox="0 0 902.000000 277.000000"
 preserveAspectRatio="xMidYMid meet">

<g transform="translate(0.000000,277.000000) scale(0.100000,-0.100000)"
fill="#000000" stroke="none">
<path d="M6700 2333 c-829 -37 -1504 -351 -1687 -784 -25 -59 -28 -75 -28
-199 0 -124 2 -140 26 -198 46 -108 91 -174 180 -263 328 -328 958 -528 1664
-529 499 0 930 88 1290 264 182 90 299 171 409 286 327 344 240 756 -222 1058
-310 202 -756 330 -1262 362 -157 9 -220 10 -370 3z m615 -107 c518 -74 926
-243 1160 -480 135 -138 188 -251 188 -401 0 -71 -5 -104 -24 -155 -170 -452
-979 -774 -1874 -747 -446 14 -823 97 -1150 252 -208 100 -412 268 -488 405
-181 327 9 668 503 904 257 122 591 207 950 240 107 9 629 -3 735 -18z"/>
<path d="M6535 2159 c-657 -67 -1196 -320 -1351 -633 -148 -300 81 -606 611
-820 503 -203 1239 -241 1832 -96 616 152 1012 483 954 797 -63 340 -551 627
-1246 733 -112 17 -198 22 -425 25 -157 2 -325 -1 -375 -6z m560 -19 c467 -34
864 -150 1148 -336 108 -71 237 -205 278 -289 31 -65 34 -77 34 -165 0 -91 -2
-100 -39 -174 -146 -297 -656 -539 -1286 -610 -158 -18 -522 -21 -685 -6 -231
22 -476 73 -671 140 -130 45 -343 153 -432 219 -325 242 -367 505 -122 751
330 332 1050 522 1775 470z"/>
<path d="M5906 1853 c3 -10 -24 -104 -61 -210 -36 -106 -65 -195 -65 -198 0
-3 65 -5 143 -5 l144 0 11 39 c7 21 12 41 12 45 0 3 -38 6 -85 6 -47 0 -85 2
-85 4 0 3 25 76 55 162 30 87 55 161 55 166 0 4 -29 8 -64 8 -56 0 -64 -2 -60
-17z"/>
<path d="M6355 1857 c5 -11 -68 -142 -188 -337 l-46 -75 52 -3 c56 -3 63 2 99
67 18 32 18 32 90 29 l73 -3 3 -47 3 -48 50 0 c50 0 51 0 45 28 -2 15 -8 92
-11 172 -3 80 -8 164 -12 188 l-5 42 -79 0 c-59 0 -77 -3 -74 -13z m75 -172
l0 -75 -50 0 c-27 0 -50 2 -50 4 0 12 83 146 91 146 5 0 9 -34 9 -75z"/>
<path d="M6717 1848 c2 -13 -25 -108 -61 -212 -36 -103 -66 -190 -66 -193 0
-2 21 -3 46 -1 l46 3 23 65 c13 36 36 100 50 143 15 42 30 77 34 77 3 0 14
-42 24 -94 9 -52 22 -117 28 -146 l11 -51 51 3 52 3 72 210 c40 116 72 211 73
213 0 1 -22 2 -49 2 l-49 0 -43 -125 c-24 -69 -46 -125 -49 -125 -4 0 -17 56
-29 125 l-23 125 -73 0 c-70 0 -72 -1 -68 -22z"/>
<path d="M7176 1853 c3 -10 -24 -104 -60 -209 -37 -105 -66 -194 -66 -198 0
-3 57 -6 128 -6 180 1 219 21 271 143 32 75 46 162 32 206 -18 63 -47 75 -188
79 -115 4 -121 3 -117 -15z m200 -98 c15 -24 15 -29 -7 -98 -31 -97 -61 -127
-128 -127 -28 0 -51 4 -51 8 0 7 58 183 75 230 2 7 23 12 49 12 38 0 48 -4 62
-25z"/>
<path d="M7608 1665 l-17 -45 99 0 c55 0 100 -4 100 -9 0 -5 -48 -26 -107 -45
-102 -34 -151 -56 -128 -56 5 0 78 23 162 51 l151 50 16 40 c9 22 16 44 16 49
0 6 -55 10 -138 10 l-138 0 -16 -45z"/>
<path d="M6581 1319 c-24 -4 -59 -20 -77 -34 -83 -64 -145 -287 -98 -354 46
-65 202 -69 286 -8 55 40 108 177 108 277 0 46 -5 62 -24 83 -39 42 -104 54
-195 36z m106 -101 c18 -14 16 -35 -8 -114 -27 -86 -70 -134 -123 -134 -48 0
-79 30 -70 68 27 114 63 178 107 191 35 10 74 6 94 -11z"/>
<path d="M6053 1308 c2 -7 -27 -103 -64 -213 -38 -109 -69 -200 -69 -202 0 -2
24 -3 53 -3 l53 0 24 75 c23 74 25 76 54 73 28 -3 32 -8 51 -73 l21 -70 52 -3
c29 -2 52 -1 52 1 0 3 -11 35 -25 71 -30 79 -30 86 -7 86 66 0 137 154 102
221 -21 38 -62 49 -185 49 -89 0 -116 -3 -112 -12z m192 -82 c16 -11 17 -19 9
-47 -12 -40 -43 -59 -101 -59 -50 0 -54 11 -23 78 18 39 22 42 58 42 21 0 47
-6 57 -14z"/>
<path d="M6870 1291 c4 -16 11 -113 15 -215 l8 -186 71 0 72 0 114 208 c62
114 115 210 117 215 2 4 -20 7 -49 7 l-53 0 -81 -157 c-44 -86 -86 -159 -92
-161 -9 -3 -12 29 -12 120 0 68 -3 140 -6 161 l-7 37 -53 0 -53 0 9 -29z"/>
<path d="M7336 1302 c3 -9 -24 -104 -60 -211 -37 -107 -66 -196 -66 -198 0 -2
64 -2 142 -1 l141 3 13 38 13 37 -85 0 c-93 0 -96 2 -70 65 l15 35 76 0 76 0
14 33 c7 17 12 33 11 34 -1 1 -34 3 -74 4 -78 2 -80 4 -61 58 l11 31 84 0 85
0 15 35 c7 19 14 39 14 45 0 6 -53 10 -149 10 -137 0 -149 -1 -145 -18z"/>
<path d="M7712 1298 c0 -17 -90 -292 -129 -395 -4 -10 10 -13 49 -13 l54 0 24
75 c23 74 25 76 54 73 28 -3 32 -8 52 -73 l22 -70 51 -3 c28 -2 51 -1 51 2 0
3 -11 35 -25 72 -14 36 -25 70 -25 74 0 4 13 10 29 13 51 10 101 98 101 177 0
26 -7 43 -26 61 -24 22 -34 24 -154 27 l-127 4 -1 -24z m189 -68 c24 -13 25
-51 1 -80 -13 -16 -32 -23 -76 -27 l-59 -5 7 28 c4 15 14 43 21 61 12 29 19
33 50 33 20 0 45 -5 56 -10z"/>
<path d="M5731 1200 l-144 -47 -18 -44 c-9 -24 -15 -47 -12 -51 2 -5 64 -8
138 -8 l133 0 16 40 c9 22 16 43 16 45 0 3 -42 5 -94 5 -52 0 -97 4 -100 9 -3
5 48 28 114 51 66 24 120 44 120 46 0 8 -31 0 -169 -46z"/>
<path d="M900 2170 c-157 -19 -280 -79 -280 -139 0 -7 -16 -31 -35 -52 -19
-22 -35 -44 -35 -49 0 -20 49 -88 67 -93 10 -3 34 -8 55 -11 38 -7 50 -22 41
-54 -4 -15 3 -24 26 -36 45 -24 56 -20 103 30 90 97 178 113 286 54 34 -19 62
-37 62 -41 0 -3 -30 -11 -66 -17 -80 -13 -145 -50 -184 -103 -44 -62 -54 -101
-35 -138 33 -64 110 -46 175 42 21 28 43 47 54 47 11 0 94 -26 185 -57 201
-68 293 -80 361 -44 39 20 44 21 99 6 70 -18 202 -19 340 -4 54 7 115 9 135 5
49 -9 96 -53 144 -134 53 -88 114 -149 182 -181 54 -26 58 -26 280 -26 261 0
253 2 379 -109 105 -94 155 -103 219 -44 23 22 30 62 12 73 -25 15 -5 23 48
18 86 -8 160 16 206 67 39 43 46 79 20 104 -21 22 -36 20 -97 -11 -39 -20 -67
-26 -112 -26 -70 0 -77 3 -499 230 -289 156 -354 188 -606 295 -600 255 -974
368 -1312 398 -124 11 -124 11 -218 0z m90 -50 c0 -19 -65 -50 -104 -50 -33 0
-37 -2 -26 -15 7 -8 34 -21 60 -29 56 -17 119 -48 178 -88 23 -16 42 -25 42
-21 0 18 -85 105 -121 124 -21 10 -39 24 -39 30 0 5 24 21 53 34 87 41 238 31
362 -24 22 -10 67 -40 100 -67 47 -38 56 -42 43 -21 -10 15 -25 39 -35 53
l-16 25 29 -7 c61 -15 416 -135 569 -192 426 -160 620 -247 1035 -462 179 -92
343 -173 365 -179 60 -16 111 -13 165 10 55 24 80 20 80 -12 0 -56 -112 -107
-215 -96 -83 8 -140 40 -229 126 -44 43 -92 84 -106 91 -13 7 -79 19 -147 26
-70 7 -137 20 -159 30 -21 10 -58 45 -86 81 -28 35 -60 68 -72 75 l-21 11 21
-24 c12 -13 36 -52 54 -87 52 -98 66 -105 244 -112 83 -4 158 -10 168 -14 9
-4 51 -46 94 -93 43 -47 99 -99 125 -115 26 -15 49 -35 52 -43 10 -23 -20 -37
-72 -33 -56 3 -55 -14 2 -28 l32 -8 -33 -3 c-39 -5 -62 9 -178 111 -116 101
-113 100 -369 106 -206 5 -223 7 -265 28 -64 33 -124 94 -185 187 -55 84 -107
141 -159 177 l-31 22 21 -25 c12 -13 26 -33 32 -45 11 -21 9 -21 -91 -30 -160
-14 -303 -9 -366 12 l-55 19 -12 60 c-6 33 -10 62 -8 64 2 2 25 -2 51 -9 66
-16 228 -26 220 -13 -4 6 -33 13 -66 16 -68 7 -199 53 -257 90 l-41 25 33 -62
c18 -34 36 -80 40 -103 5 -35 3 -44 -23 -73 -51 -57 -104 -54 -368 21 -60 17
-131 33 -156 36 -50 6 -52 4 -92 -57 -12 -19 -29 -36 -38 -38 -23 -4 -51 22
-52 50 -3 36 -17 24 -17 -14 0 -17 7 -40 17 -50 14 -16 15 -18 0 -18 -20 0
-47 38 -47 66 0 35 61 117 107 142 27 15 73 26 130 33 86 10 91 10 177 -20
100 -35 144 -41 78 -11 -66 30 -111 69 -143 124 l-30 51 3 -47 c2 -27 2 -48 0
-48 -2 0 -35 18 -75 39 -40 22 -91 44 -114 51 -30 7 -50 21 -70 48 -52 72 -76
80 -61 22 13 -52 -3 -93 -48 -121 -19 -11 -46 -36 -60 -55 -26 -34 -57 -44
-70 -23 -3 6 7 25 24 42 16 18 35 42 41 54 35 69 -22 164 -81 132 -10 -5 -29
-32 -43 -59 -26 -52 -56 -65 -83 -38 -33 33 16 104 80 114 38 7 98 46 98 65 0
20 -64 8 -91 -17 -15 -14 -32 -23 -38 -20 -30 19 42 68 135 90 70 17 204 21
204 6z m-260 -79 c0 -11 -31 -24 -39 -16 -3 3 1 10 9 15 19 12 30 12 30 1z
m38 -113 c17 -17 15 -78 -5 -100 -22 -25 -39 -23 -59 7 -34 52 23 134 64 93z"/>
<path d="M885 2100 c-7 -12 22 -12 50 0 17 7 15 9 -12 9 -17 1 -35 -3 -38 -9z"/>
<path d="M559 743 c0 -89 -16 -132 -58 -160 -31 -21 -45 -23 -166 -23 -112 0
-134 -2 -139 -16 -5 -14 13 -16 176 -12 162 3 187 5 218 23 52 31 70 75 70
173 l0 82 -50 0 -50 0 -1 -67z"/>
<path d="M859 688 c-152 -178 -143 -165 -109 -160 15 2 41 17 56 33 l28 29
162 0 163 0 21 -30 c19 -27 27 -30 76 -30 30 0 54 2 54 5 0 3 -52 66 -116 140
l-117 135 -57 0 -56 0 -105 -122z m200 11 c34 -38 61 -74 61 -80 0 -10 -86
-10 -192 0 l-66 6 61 73 c34 39 65 72 68 72 4 0 35 -32 68 -71z"/>
<path d="M1510 800 c-97 -20 -125 -50 -125 -130 0 -44 5 -63 20 -80 46 -51 66
-55 298 -58 l217 -4 0 61 0 61 -55 0 -55 0 0 -45 0 -45 -116 0 c-131 0 -175
13 -199 61 -20 38 -19 68 5 106 26 44 66 53 244 56 109 1 150 5 154 15 3 9
-36 12 -175 11 -98 -1 -194 -5 -213 -9z"/>
<path d="M2040 725 c0 -115 15 -149 77 -178 43 -20 64 -22 198 -22 137 0 154
2 193 23 57 30 72 67 72 177 l0 85 -49 0 -49 0 -4 -92 c-2 -57 -10 -102 -18
-116 -26 -40 -74 -54 -166 -50 -79 3 -85 5 -116 35 -31 31 -32 36 -36 128 l-4
95 -49 0 -49 0 0 -85z"/>
<path d="M2767 672 c-102 -118 -115 -137 -96 -140 13 -2 33 8 53 27 l32 31
159 0 160 0 25 -31 c24 -28 30 -30 79 -27 l54 3 -118 138 -118 137 -56 0 -56
0 -118 -138z m213 28 c34 -39 60 -73 57 -77 -10 -9 -211 -15 -233 -6 -21 8
-19 12 39 81 34 39 64 72 68 72 3 0 34 -32 69 -70z"/>
<path d="M3350 672 l0 -140 50 -4 49 -3 3 50 3 50 74 3 c74 3 75 3 157 -48 72
-44 90 -50 136 -50 l53 0 -67 40 c-37 23 -70 45 -73 49 -2 5 12 12 32 16 78
14 112 53 94 107 -20 60 -32 63 -283 66 l-228 3 0 -139z m398 94 c20 -20 19
-73 -1 -94 -14 -13 -40 -16 -154 -17 l-138 0 -3 62 c-3 73 -13 69 167 66 86
-2 118 -6 129 -17z"/>
</g>
</svg>
