<?xml version="1.0" standalone="no"?>
<!DOCTYPE svg PUBLIC "-//W3C//DTD SVG 20010904//EN"
 "http://www.w3.org/TR/2001/REC-SVG-20010904/DTD/svg10.dtd">
<svg version="1.0" xmlns="http://www.w3.org/2000/svg"
 width="1067.000000pt" height="234.000000pt" viewBox="0 0 1067.000000 234.000000"
 preserveAspectRatio="xMidYMid meet">

<g transform="translate(0.000000,234.000000) scale(0.100000,-0.100000)"
fill="#000000" stroke="none">
<path d="M1132 2029 c-46 -5 -133 -20 -193 -34 -434 -100 -746 -338 -833 -634
-20 -68 -21 -208 -2 -279 74 -278 348 -509 736 -621 157 -45 267 -62 450 -68
250 -8 420 15 645 88 590 191 849 648 597 1049 -48 77 -164 193 -247 250 -170
115 -369 192 -610 236 -98 19 -428 26 -543 13z m553 -103 c234 -43 400 -133
419 -228 13 -65 -48 -138 -159 -189 -58 -27 -239 -79 -275 -79 -14 0 -22 22
-44 113 -75 317 -230 455 -372 333 -74 -64 -144 -216 -174 -379 l-13 -69 -46
7 c-66 9 -208 53 -264 82 -71 36 -135 98 -143 139 -16 89 69 165 257 229 55
19 151 38 294 59 71 10 434 -3 520 -18z m-292 -200 c21 -8 46 -33 66 -64 33
-52 85 -216 76 -239 -3 -10 -49 -13 -181 -13 l-176 0 7 48 c16 109 75 230 128
263 38 23 39 23 80 5z m-983 -127 c0 -34 40 -100 89 -148 49 -47 133 -98 231
-139 57 -24 269 -82 300 -82 15 0 18 -15 23 -117 15 -284 97 -539 201 -620 15
-12 23 -23 19 -26 -4 -2 -42 0 -83 5 -471 57 -837 309 -920 633 -42 165 -13
322 91 478 31 47 49 53 49 16z m1942 -6 c86 -129 111 -206 112 -343 1 -168
-54 -296 -187 -436 -111 -118 -229 -193 -414 -264 -109 -42 -355 -90 -414 -81
-3 1 12 20 34 43 87 91 158 306 177 533 5 66 10 135 10 153 0 24 4 32 18 32
29 0 214 49 282 75 184 70 320 187 337 288 3 20 9 37 13 37 4 0 19 -17 32 -37z
m-805 -483 c-4 -54 -17 -131 -31 -178 -101 -345 -298 -246 -346 174 -5 48 -8
90 -6 93 3 4 91 6 197 6 l192 0 -6 -95z"/>
<path d="M4639 1840 c-73 -9 -193 -55 -263 -101 -25 -17 -74 -62 -110 -100
-140 -151 -195 -356 -151 -563 37 -176 172 -346 335 -424 109 -51 170 -65 289
-64 170 1 313 62 436 186 247 248 245 638 -4 886 -145 143 -324 204 -532 180z
m223 -248 c69 -30 143 -104 178 -177 103 -216 28 -472 -167 -571 -51 -25 -69
-29 -143 -29 -73 0 -93 4 -141 28 -99 48 -173 144 -204 264 -55 211 57 437
248 499 58 19 170 12 229 -14z"/>
<path d="M7150 1840 c-135 -15 -254 -74 -361 -180 -248 -247 -251 -640 -5
-886 124 -124 267 -185 437 -186 119 -1 180 13 289 64 162 77 299 249 335 423
30 142 12 292 -50 420 -40 85 -139 196 -222 251 -113 75 -273 110 -423 94z
m223 -254 c61 -29 134 -102 166 -164 90 -176 55 -393 -84 -521 -71 -66 -124
-86 -225 -86 -75 0 -92 4 -144 30 -76 38 -147 118 -182 204 -23 56 -27 81 -27
166 -1 87 3 109 27 167 45 108 131 192 231 225 63 21 173 11 238 -21z"/>
<path d="M3017 1698 l1 -103 186 -3 186 -2 0 -490 0 -490 130 0 130 0 0 490 0
490 185 0 185 0 0 105 0 105 -502 0 -503 0 2 -102z"/>
<path d="M5396 1788 c4 -7 108 -173 231 -369 l223 -357 0 -226 0 -226 130 0
130 0 0 225 0 226 212 337 c116 185 220 352 231 370 l19 32 -150 0 -150 0
-128 -222 c-70 -123 -136 -236 -147 -251 l-19 -28 -143 248 -143 248 -152 3
c-121 2 -150 0 -144 -10z"/>
<path d="M7950 1695 l0 -105 184 0 c138 0 185 -3 188 -12 2 -7 3 -228 3 -490
l0 -478 128 0 127 0 0 490 0 490 190 0 190 0 0 105 0 105 -505 0 -505 0 0
-105z"/>
<path d="M9216 1437 c-81 -199 -161 -391 -176 -427 -81 -192 -160 -386 -160
-393 0 -4 67 -7 149 -7 l150 0 19 53 c11 28 35 89 52 135 l32 82 250 -2 250
-3 50 -132 51 -133 148 0 c82 0 149 3 149 8 0 4 -79 199 -176 432 -96 234
-205 498 -241 588 l-67 162 -165 0 -166 0 -149 -363z m337 41 c8 -24 45 -121
81 -216 36 -96 64 -178 60 -183 -7 -12 -321 -12 -328 0 -7 10 155 441 166 441
3 0 13 -19 21 -42z"/>
</g>
</svg>
