<?xml version="1.0" standalone="no"?>
<!DOCTYPE svg PUBLIC "-//W3C//DTD SVG 20010904//EN"
 "http://www.w3.org/TR/2001/REC-SVG-20010904/DTD/svg10.dtd">
<svg version="1.0" xmlns="http://www.w3.org/2000/svg"
 width="2560.000000pt" height="701.000000pt" viewBox="0 0 2560.000000 701.000000"
 preserveAspectRatio="xMidYMid meet">

<g transform="translate(0.000000,701.000000) scale(0.100000,-0.100000)"
fill="#000000" stroke="none">
<path d="M3965 6985 c-14 -5 -426 -33 -680 -45 -921 -45 -2205 -36 -3028 21
-87 6 -160 9 -161 7 -2 -1 -22 -239 -45 -528 -23 -289 -44 -549 -47 -579 -6
-50 -5 -54 12 -47 208 81 725 161 1422 221 l73 6 -5 -503 c-3 -277 -8 -820
-11 -1208 -3 -388 -10 -766 -15 -840 -33 -446 -107 -848 -225 -1220 -6 -20 -5
-20 352 -20 197 0 563 3 814 7 l456 6 -29 91 c-99 313 -173 701 -214 1126 -24
241 -34 2560 -11 2560 8 0 131 -9 273 -20 484 -38 829 -87 921 -131 24 -11 63
-43 87 -70 83 -92 77 45 74 -1690 l-3 -1544 -34 -100 c-18 -55 -46 -129 -62
-164 -16 -35 -29 -66 -29 -69 0 -5 1242 6 1247 12 2 1 -12 34 -31 72 -73 148
-78 174 -86 454 -5 140 -9 341 -11 445 l-2 190 77 9 c70 8 79 7 88 -8 19 -34
213 -272 302 -371 580 -641 1338 -1228 2191 -1696 1911 -1046 4245 -1484 6900
-1294 2050 147 3948 687 5760 1637 463 242 823 450 1349 776 136 84 251 150
255 145 4 -4 13 -37 20 -72 27 -139 82 -236 156 -278 40 -23 41 -23 523 -23
266 0 482 3 480 8 -125 244 -121 219 -125 759 l-4 462 93 69 c381 281 853 551
1208 690 l155 60 6 -831 c5 -744 7 -840 23 -906 37 -158 86 -246 161 -288 40
-23 41 -23 523 -23 266 0 482 3 480 8 -2 4 -17 34 -34 67 -37 71 -69 167 -83
249 -8 40 -11 614 -11 1753 l0 1693 -596 0 c-473 0 -595 -3 -591 -12 52 -129
70 -177 93 -253 28 -89 28 -93 32 -422 l3 -332 -23 -5 c-13 -3 -66 -12 -118
-21 -336 -59 -755 -244 -1186 -526 -66 -43 -124 -79 -127 -79 -4 0 -7 371 -7
825 l0 825 -595 0 c-327 0 -595 -2 -595 -4 0 -2 18 -49 40 -104 22 -55 50
-135 63 -179 l22 -78 3 -1032 3 -1032 -178 -134 c-1364 -1024 -2464 -1649
-3704 -2105 -1172 -431 -2361 -668 -3824 -762 -265 -18 -1253 -24 -1541 -11
-974 45 -1818 176 -2639 407 -1565 441 -2887 1272 -3696 2324 -111 143 -247
355 -237 366 2 2 31 18 64 35 358 189 608 492 701 848 34 131 42 362 19 506
-81 492 -448 880 -909 961 -79 14 -151 16 -527 10 -239 -3 -628 -11 -863 -17
-236 -6 -431 -8 -434 -5 -3 3 -27 223 -52 488 -44 459 -47 483 -66 485 -11 1
-24 0 -30 -2z m1513 -1605 c200 -33 383 -151 452 -294 74 -152 56 -369 -47
-556 -49 -89 -194 -230 -300 -293 -151 -90 -403 -177 -558 -193 l-60 -6 2 243
c2 134 6 439 9 677 l6 432 217 0 c119 0 244 -5 279 -10z"/>
<path d="M9525 6030 c-154 -3 -281 -7 -283 -8 -2 -1 11 -22 28 -47 36 -52 53
-91 77 -172 16 -53 18 -172 23 -1378 l5 -1320 28 -99 c119 -435 472 -732 998
-838 101 -20 142 -23 354 -23 210 1 253 3 342 23 248 54 457 156 583 286 25
25 47 46 50 46 3 0 13 -22 23 -50 24 -67 73 -129 132 -165 l48 -30 216 -3
c119 -2 329 -1 466 3 l251 7 -48 97 c-26 53 -60 141 -75 196 l-28 100 -3 1683
-3 1682 -570 0 c-314 0 -569 -3 -567 -7 44 -87 82 -176 100 -239 l23 -79 -3
-1055 c-1 -617 -7 -1095 -13 -1152 -42 -405 -269 -618 -656 -618 -54 0 -127 7
-162 15 -208 49 -360 214 -433 470 l-22 80 -6 1160 c-6 1249 -3 1183 -60 1295
-33 65 -80 113 -132 134 -40 17 -105 18 -683 6z"/>
<path d="M13725 6030 c-203 -3 -372 -7 -373 -8 -2 -1 15 -23 38 -49 50 -58
103 -165 127 -258 17 -66 18 -163 18 -1580 l0 -1510 -22 -87 c-23 -89 -64
-187 -103 -245 l-22 -33 532 0 c292 0 530 3 528 8 -47 90 -82 177 -100 244
l-22 83 -3 1135 -3 1135 178 -350 c279 -548 479 -910 590 -1070 106 -153 252
-277 378 -325 161 -60 451 -67 556 -14 16 8 31 28 39 51 65 203 425 1119 544
1388 57 129 191 401 214 434 6 9 9 -270 10 -770 0 -431 3 -948 7 -1149 7 -400
1 -478 -43 -614 -15 -43 -43 -105 -64 -137 l-39 -59 585 0 584 0 -39 83 c-21
45 -48 111 -60 147 -50 148 -49 117 -50 1670 0 943 4 1477 10 1518 16 96 55
210 99 285 l40 67 -252 -1 c-139 0 -423 -4 -632 -8 -447 -9 -445 -9 -540 -105
-79 -79 -113 -148 -234 -462 -76 -200 -414 -1066 -473 -1214 -9 -23 -18 -10
-95 150 -229 472 -466 968 -563 1176 -59 127 -124 256 -143 287 -43 67 -108
132 -157 157 -85 43 -130 44 -1045 30z"/>
<path d="M18370 6037 c0 -2 20 -35 45 -73 25 -38 60 -105 78 -149 l32 -80 0
-1565 0 -1565 -29 -88 c-16 -49 -51 -125 -77 -169 -27 -45 -49 -83 -49 -85 0
-2 235 -3 523 -1 580 3 552 0 615 72 63 72 65 92 70 602 l3 461 102 18 c242
42 585 142 796 232 488 208 791 469 935 803 112 263 97 658 -39 955 -69 151
-208 327 -335 421 -109 80 -262 150 -410 187 -83 21 -106 21 -1172 24 -599 2
-1088 2 -1088 0z m1818 -669 c160 -58 280 -155 339 -276 l38 -76 -1 -136 c0
-118 -4 -145 -27 -215 -78 -234 -269 -419 -557 -538 -84 -35 -275 -89 -357
-102 l-43 -7 0 686 0 685 98 4 c53 2 174 3 267 3 157 -1 175 -3 243 -28z"/>
<path d="M7573 6013 l-142 -4 34 -62 c40 -73 70 -179 85 -297 6 -55 10 -599
10 -1545 0 -909 4 -1493 10 -1547 13 -112 42 -189 87 -233 65 -63 82 -65 605
-65 l468 0 -36 55 c-44 70 -70 130 -97 225 -21 75 -21 80 -27 1650 l-5 1575
-22 65 c-31 88 -54 124 -104 157 l-43 28 -340 0 c-188 1 -405 -1 -483 -2z"/>
</g>
</svg>
